<svg xmlns="http://www.w3.org/2000/svg" version="1.1" xmlns:xlink="http://www.w3.org/1999/xlink" xmlns:svgjs="http://svgjs.com/svgjs" width="512" height="512" x="0" y="0" viewBox="0 0 1000 1000" style="enable-background:new 0 0 512 512" xml:space="preserve" class=""><g><linearGradient id="linear-gradient" gradientUnits="userSpaceOnUse" x1="500" x2="500" y1="980.1" y2="10.1"><stop offset=".18" stop-color="#b4dfff"></stop><stop offset=".48" stop-color="#cce9ff"></stop><stop offset=".78" stop-color="#dff1ff"></stop><stop offset="1" stop-color="#e5f4ff"></stop></linearGradient><linearGradient id="linear-gradient-2" gradientUnits="userSpaceOnUse" x1="500" x2="500" y1="237.83" y2="751.47"><stop offset="0" stop-color="#416fff"></stop><stop offset=".3" stop-color="#3184ff"></stop><stop offset=".91" stop-color="#06bbff"></stop><stop offset="1" stop-color="#00c3ff"></stop></linearGradient><circle cx="500" cy="500" fill="url(#linear-gradient)" r="485" data-original="url(#linear-gradient)" class=""></circle><path d="m352.61 474.62a120 120 0 0 1 -120-120 120 120 0 0 1 120-120 120 120 0 0 1 120 120 120 120 0 0 1 -120 120zm414.79-120a120 120 0 0 0 -120-120 120 120 0 0 0 -120 120 120 120 0 0 0 120 120 120 120 0 0 0 120-120.02zm-294.77 290.78a120 120 0 0 0 -120-120 120 120 0 0 0 -120 120 120 120 0 0 0 120 120 120 120 0 0 0 120-120zm294.77 0a120 120 0 0 0 -120-120 120 120 0 0 0 -120 120 120 120 0 0 0 120 120 120 120 0 0 0 120-120z" fill="url(#linear-gradient-2)" data-original="url(#linear-gradient-2)"></path></g></svg>